HIERARCHY
ROOT SpineBase
{
  OFFSET 0.000000 0.000000 0.000000
  CHANNELS 6 Xposition Yposition Zposition Zrotation Xrotation Yrotation
  JOINT SpineMid
  {
    OFFSET 0.000000 31.826476 0.000000
    CHANNELS 3 Zrotation Xrotation Yrotation
    JOINT SpineShoulder
    {
      OFFSET 0.044521 23.621744 -0.798117
      CHANNELS 3 Zrotation Xrotation Yrotation
      JOINT Neck
      {
        OFFSET 0.030826 7.799337 -0.588576
        CHANNELS 3 Zrotation Xrotation Yrotation
        JOINT Head
        {
          OFFSET 6.862073 11.837269 5.606522
          CHANNELS 3 Zrotation Xrotation Yrotation
          End Site
          {
            OFFSET 0 0 0
          }
        }
      }
      JOINT ShoulderLeft
      {
        OFFSET -10.003778 -2.779326 -13.636479
        CHANNELS 3 Zrotation Xrotation Yrotation
        JOINT ElbowLeft
        {
          OFFSET -7.830733 -27.253258 -7.250450
          CHANNELS 3 Zrotation Xrotation Yrotation
          JOINT WristLeft
          {
            OFFSET 3.156197 -23.512157 -4.392234
            CHANNELS 3 Zrotation Xrotation Yrotation
            JOINT HandLeft
            {
              OFFSET 1.270832 -7.702570 1.872557
              CHANNELS 3 Zrotation Xrotation Yrotation
              JOINT HandTipLeft
              {
                OFFSET 0.669194 -7.005698 1.028167
                CHANNELS 3 Zrotation Xrotation Yrotation
                End Site
                {
                  OFFSET 0 0 0
                }
              }
              JOINT ThumbLeft
              {
                OFFSET 4.133776 1.381785 4.676349
                CHANNELS 3 Zrotation Xrotation Yrotation
                End Site
                {
                  OFFSET 0 0 0
                }
              }
            }
          }
        }
      }
      JOINT ShoulderRight
      {
        OFFSET 10.386758 -6.921833 10.025554
        CHANNELS 3 Zrotation Xrotation Yrotation
        JOINT ElbowRight
        {
          OFFSET 2.084686 -30.184782 8.199953
          CHANNELS 3 Zrotation Xrotation Yrotation
          JOINT WristRight
          {
            OFFSET 3.307730 -23.652358 -1.067944
            CHANNELS 3 Zrotation Xrotation Yrotation
            JOINT HandRight
            {
              OFFSET -2.793754 -1.378510 -1.181608
              CHANNELS 3 Zrotation Xrotation Yrotation
              JOINT HandTipRight
              {
                OFFSET 0.654275 -7.393239 0.315328
                CHANNELS 3 Zrotation Xrotation Yrotation
                End Site
                {
                  OFFSET 0 0 0
                }
              }
              JOINT ThumbRight
              {
                OFFSET 1.791012 -3.049403 -1.286502
                CHANNELS 3 Zrotation Xrotation Yrotation
                End Site
                {
                  OFFSET 0 0 0
                }
              }
            }
          }
        }
      }
    }
  }
  JOINT HipLeft
  {
    OFFSET -4.185657 1.366885 -8.819282
    CHANNELS 3 Zrotation Xrotation Yrotation
    JOINT KneeLeft
    {
      OFFSET -12.270001 -36.069245 -4.344236
      CHANNELS 3 Zrotation Xrotation Yrotation
      JOINT AnkleLeft
      {
        OFFSET -14.088329 -37.109324 -1.732664
        CHANNELS 3 Zrotation Xrotation Yrotation
        JOINT FootLeft
        {
          OFFSET -1.671256 -6.526013 -8.997482
          CHANNELS 3 Zrotation Xrotation Yrotation
          End Site
          {
            OFFSET 0 0 0
          }
        }
      }
    }
  }
  JOINT HipRight
  {
    OFFSET 4.947630 -0.028352 1.668903
    CHANNELS 3 Zrotation Xrotation Yrotation
    JOINT KneeRight
    {
      OFFSET -5.357930 -38.733910 4.751060
      CHANNELS 3 Zrotation Xrotation Yrotation
      JOINT AnkleRight
      {
        OFFSET -8.903750 -33.360185 5.933317
        CHANNELS 3 Zrotation Xrotation Yrotation
        JOINT FootRight
        {
          OFFSET 1.399081 -8.469557 -4.848720
          CHANNELS 3 Zrotation Xrotation Yrotation
          End Site
          {
            OFFSET 0 0 0
          }
        }
      }
    }
  }
}
MOTION
Frames: 6
Frame Time: 0.033333
-32.557459 81.870701 354.463336 -0.000000 0.000000 -48.950106 -0.000000 0.000000 48.950106 -0.000000 0.000000 0.000000 -0.000000 0.000000 0.000000 0.000000 0.000000 0.000000 -0.000000 0.000000 0.000000 -0.000000 0.000000 0.000000 -0.000000 0.000000 0.000000 -0.000000 0.000000 0.000000 0.000000 0.000000 0.000000 0.000000 0.000000 0.000000 -0.000000 0.000000 0.000000 -0.000000 0.000000 0.000000 -0.000000 0.000000 0.000000 -0.000000 0.000000 0.000000 0.000000 0.000000 0.000000 0.000000 0.000000 0.000000 -0.000000 0.000000 48.950106 -0.000000 0.000000 0.000000 -0.000000 0.000000 0.000000 0.000000 0.000000 0.000000 -0.000000 0.000000 48.950106 -0.000000 0.000000 0.000000 -0.000000 0.000000 0.000000 0.000000 0.000000 0.000000
-32.620722 81.831494 354.345971 0.010298 -0.072511 -48.718000 -0.061284 0.040102 48.718028 -0.000000 0.000000 0.000000 -0.000000 0.000000 0.000000 0.000000 0.000000 0.000000 -0.000000 0.000000 0.000000 -0.932592 0.345352 0.223506 -2.034091 -0.032646 -0.902117 4.463299 -1.247005 0.823176 0.000000 0.000000 0.000000 0.000000 0.000000 0.000000 -0.000000 0.000000 0.000000 -0.000000 0.000000 0.000000 7.983194 -3.945564 1.713709 -9.262050 4.887834 -1.039793 0.000000 0.000000 0.000000 0.000000 0.000000 0.000000 -0.061284 0.040102 48.718028 -0.000000 0.000000 0.000000 -0.399202 -0.959491 0.801289 0.000000 0.000000 0.000000 -0.061284 0.040102 48.718028 -0.000000 0.000000 0.000000 -0.000000 0.000000 0.000000 0.000000 0.000000 0.000000
-32.684048 81.796307 354.237575 0.011809 -0.129932 -48.501969 -0.105141 0.077247 48.502054 -0.000000 0.000000 0.000000 -0.000000 0.000000 0.000000 0.000000 0.000000 0.000000 -0.000000 0.000000 0.000000 -1.730926 0.617865 0.416071 -3.627602 -0.038851 -1.651742 8.097167 -2.130511 1.531128 0.000000 0.000000 0.000000 0.000000 0.000000 0.000000 -0.000000 0.000000 0.000000 -0.744536 -0.663644 -0.063579 15.198398 -6.246093 3.383589 -16.819372 8.937782 -1.295871 0.000000 0.000000 0.000000 0.000000 0.000000 0.000000 -0.105141 0.077247 48.502054 -0.000000 0.000000 0.000000 -0.723527 -1.737066 1.459528 0.000000 0.000000 0.000000 -0.105141 0.077247 48.502054 -0.000000 0.000000 0.000000 -0.000000 0.000000 0.000000 0.000000 0.000000 0.000000
-32.747437 81.765142 354.138151 0.004560 -0.172322 -48.302295 -0.131701 0.111224 48.302430 -0.000000 0.000000 0.000000 -0.102850 0.727510 -0.371067 0.000000 0.000000 0.000000 -0.000000 0.000000 0.000000 -2.394003 0.818770 0.575141 -4.724781 -0.052039 -2.229206 10.812327 -2.669915 2.079081 0.000000 0.000000 0.000000 0.000000 0.000000 0.000000 -0.000000 0.000000 0.000000 -1.091081 -0.830647 -0.074934 20.673886 -8.261342 4.925879 -22.925195 12.138733 -1.109761 0.000000 0.000000 0.000000 0.000000 0.000000 0.000000 -0.131701 0.111224 48.302430 -0.000000 0.000000 0.000000 -0.980479 -2.334237 1.980819 0.000000 0.000000 0.000000 -0.131701 0.111224 48.302430 -0.000000 0.000000 0.000000 -0.000000 0.000000 0.000000 0.000000 0.000000 0.000000
-32.810888 81.737998 354.047696 -0.011426 -0.199733 -48.119219 -0.141081 0.141845 48.119373 -0.000000 0.000000 0.000000 -0.083583 0.844389 -0.447545 0.000000 0.000000 0.000000 -0.000000 0.000000 0.000000 -2.921232 0.949219 0.698753 -5.289606 -0.098753 -2.622057 12.545316 -2.883276 2.436994 0.000000 0.000000 0.000000 0.000000 0.000000 0.000000 -0.000000 0.000000 0.000000 -1.420165 -0.887820 -0.071188 25.006991 -9.794404 6.279051 -27.812889 14.580567 -0.721200 0.000000 0.000000 0.000000 0.000000 0.000000 0.000000 -0.141081 0.141845 48.119373 -0.000000 0.000000 0.000000 -1.175759 -2.752064 2.369684 0.000000 0.000000 0.000000 -0.141081 0.141845 48.119373 -0.000000 0.000000 0.000000 -0.000000 0.000000 0.000000 0.000000 0.000000 0.000000
-32.874402 81.714876 353.966211 -0.036132 -0.212209 -47.952940 -0.133386 0.168956 47.953070 -0.000000 0.000000 0.000000 -0.038124 0.899560 -0.501167 0.000000 0.000000 0.000000 -0.000000 0.000000 0.000000 -3.312319 1.010186 0.785496 -5.300589 -0.196784 -2.822622 13.254543 -2.781732 2.588267 0.000000 0.000000 0.000000 0.000000 0.000000 0.000000 -0.572553 -0.582484 -0.198474 -1.158135 -0.256929 0.158849 28.393648 -10.993016 7.446967 -31.659130 16.371292 -0.287811 0.000000 0.000000 0.000000 0.000000 0.000000 0.000000 -0.133386 0.168956 47.953070 0.867020 -0.207480 0.039974 -2.181893 -2.781912 2.596947 0.000000 0.000000 0.000000 -0.133386 0.168956 47.953070 -0.000000 0.000000 0.000000 -0.000000 0.000000 0.000000 0.000000 0.000000 0.000000
